<?xml version="1.0" encoding="utf-8"?>
<!-- Generator: Adobe Illustrator 26.0.1, SVG Export Plug-In . SVG Version: 6.00 Build 0)  -->
<svg version="1.1" id="Layer_1" xmlns="http://www.w3.org/2000/svg" xmlns:xlink="http://www.w3.org/1999/xlink" x="0px"
     y="0px"
     viewBox="0 0 48 18" style="enable-background:new 0 0 48 18;" xml:space="preserve">
<style type="text/css">
	.st0{fill:#5ABDDB;}
	.st1{fill:#6BC6B3;}
	.st2{fill:#55B9A7;}
	.st3{fill:#0CB2BC;}
	.st4{fill:#003A52;}
	.st5{fill:#355BA9;}
</style>
    <path class="st0" d="M86.8,14.6v-2.1h0.9v-6h-0.9V4.3h6.3c0.9,0,1.7,0.1,2.4,0.4c0.7,0.3,1.3,0.6,1.7,1.1c0.5,0.5,0.8,1,1,1.6
	c0.2,0.6,0.4,1.3,0.4,2c0,0.8-0.1,1.5-0.4,2.1c-0.2,0.6-0.6,1.2-1,1.6c-0.4,0.4-1,0.8-1.7,1c-0.7,0.2-1.5,0.4-2.4,0.4H86.8z
	 M91.2,12.5h1.2c0.4,0,0.8-0.1,1.1-0.2c0.3-0.1,0.6-0.3,0.8-0.6c0.2-0.3,0.3-0.6,0.4-1c0.1-0.4,0.1-0.8,0.1-1.3c0-0.5,0-0.9-0.1-1.3
	c-0.1-0.4-0.2-0.7-0.4-0.9c-0.2-0.3-0.4-0.5-0.8-0.6c-0.3-0.1-0.7-0.2-1.1-0.2h-1.2V12.5z"/>
    <path class="st0" d="M99.5,14.6v-2.1h1l2.4-6h-1V4.3h7.8v2.1h-1l2.4,6h1v2.1h-5.6v-2.1h1.1l-0.4-1.4h-3l-0.5,1.4h0.9v2.1H99.5z
	 M104.7,9.1h1.8l-0.8-2.7h-0.1L104.7,9.1z"/>
    <path class="st0" d="M113.3,14.6v-2.1h0.9v-6h-0.9V4.3h5.6l1.9,5l1.9-5h5.3v2.1H127v6h0.9v2.1h-5.1v-2.1h0.9v-5l-2.5,6.7h-1.6
	L117,7.5v5h0.9v2.1H113.3z"/>
    <path class="st0"
          d="M129.9,14.6v-0.4h1.3V5h-1.3V4.7h1.8l7.3,9.2V5h-1.3V4.7h2.9V5h-1.1v9.5h-0.5l-7.2-9.1v8.7h1.3v0.4H129.9z"/>
    <path class="st0" d="M145.4,14.6c0.9,0,1.8-0.2,2.4-0.6c0.7-0.4,1.2-1,1.6-1.8c0.4-0.8,0.6-1.7,0.6-2.8c0-1-0.2-1.9-0.6-2.7
	c-0.4-0.8-0.9-1.4-1.6-1.8c-0.7-0.4-1.5-0.6-2.4-0.6c-0.8,0-1.5,0.2-2.2,0.6c-0.7,0.4-1.2,1-1.5,1.7l0.2-0.1v-2h-0.4v2.7h0.3
	c0.3-0.8,0.8-1.4,1.4-1.8c0.6-0.4,1.3-0.6,2.1-0.6c0.8,0,1.6,0.2,2.2,0.6c0.6,0.4,1.1,0.9,1.4,1.6c0.3,0.7,0.5,1.5,0.5,2.5
	c0,1-0.2,1.8-0.5,2.6c-0.3,0.7-0.8,1.3-1.4,1.7c-0.6,0.4-1.4,0.6-2.2,0.6c-0.4,0-0.8-0.1-1.2-0.2c-0.4-0.1-0.8-0.3-1.2-0.7
	c-0.4-0.3-0.7-0.7-1-1.3c-0.3-0.5-0.4-1.2-0.4-2l-0.1,0h2.1V9.7h-2.4v0.1c0,1,0.1,1.8,0.4,2.5c0.3,0.6,0.6,1.1,1.1,1.5
	c0.4,0.3,0.9,0.6,1.4,0.7C144.6,14.5,145,14.6,145.4,14.6z"/>
    <g>
	<path class="st1" d="M4.5,13.7c-0.8,0-1.6-0.2-2.3-0.6c-0.7-0.4-1.2-1-1.6-1.7c-1-1.9-0.7-4.2,0.7-5.7c0.4-0.4,0.9-0.8,1.4-1
		c0.5-0.2,1.1-0.4,1.7-0.4c0.7,0,1.4,0.2,2,0.5C7.1,5,7.6,5.4,8,6c0.4,0.5,0.7,1.2,0.9,1.8C9,8.4,9.1,9.1,8.9,9.8h-6
		C3,10,3.1,10.2,3.3,10.4c0.1,0.2,0.3,0.3,0.5,0.4C4,10.9,4.3,11,4.5,11c0.3,0,0.5-0.1,0.7-0.2c0.2-0.1,0.4-0.3,0.6-0.5L8.6,11
		c-0.4,0.8-0.9,1.5-1.6,2C6.2,13.4,5.4,13.7,4.5,13.7z M2.8,7.9h3.4C6.1,7.6,6,7.4,5.8,7.2C5.7,7,5.5,6.8,5.2,6.7
		C5,6.6,4.8,6.5,4.5,6.5C4.3,6.5,4,6.6,3.8,6.7C3.6,6.8,3.4,7,3.2,7.2C3,7.4,2.9,7.6,2.8,7.9L2.8,7.9z"/>
        <path class="st1" d="M11.1,13.4V0h2.7v13.5H11.1z"/>
        <path class="st1" d="M33.9,0h2.7v13.5h-2.7v-0.8c-0.3,0.3-0.6,0.6-1,0.8c-0.4,0.2-0.8,0.3-1.3,0.3c-0.6,0-1.3-0.1-1.8-0.4
		c-1.1-0.5-2-1.4-2.5-2.5c-0.5-1.2-0.5-2.5,0-3.7c0.5-1.1,1.4-2,2.5-2.5c0.6-0.2,1.2-0.4,1.8-0.4c0.5,0,0.9,0.1,1.3,0.3
		c0.4,0.2,0.7,0.5,1,0.8L33.9,0z M31.7,11.1c0.4,0,0.7-0.1,1-0.3c0.3-0.2,0.6-0.5,0.7-0.8c0.4-0.7,0.4-1.5,0-2.2
		c-0.2-0.3-0.4-0.6-0.7-0.8c-0.3-0.2-0.7-0.3-1-0.3c-0.4,0-0.7,0.1-1,0.3c-0.3,0.2-0.6,0.5-0.7,0.8c-0.2,0.3-0.3,0.7-0.3,1.1
		c0,0.4,0.1,0.7,0.3,1.1c0.2,0.3,0.4,0.6,0.7,0.8C31,11,31.3,11.1,31.7,11.1L31.7,11.1z"/>
        <path class="st1" d="M45.1,4.2H48l-5,13.7h-2.9l1.6-4.6l-3.3-9.2h3l1.7,5.4L45.1,4.2z"/>
        <path class="st2" d="M16.6,8.9c-0.3-0.6-0.6-1.3-0.7-2c0-0.2-0.1-0.5-0.1-0.7c0-1.4,0.9-2.2,2.3-2c0.9,0.1,1.7,0.6,2.5,1
		c0.4,0.3,0.9,0.6,1.2,1c-0.4,0.2-0.8,0.4-1.2,0.6C20.3,7,20,7,19.8,6.9c-0.7-0.2-1.3-0.4-2-0.5c-0.2,0-0.4-0.1-0.5,0.1
		c-0.1,0.2,0,0.3,0.1,0.5c0.3,0.6,0.7,1.3,1,1.9c0.1,0.1,0.1,0.3,0.1,0.4c-0.1,0.5-0.3,1-0.4,1.4C17.4,10.2,17,9.5,16.6,8.9z"/>
        <path class="st3" d="M21.7,6.2c-0.3-0.4-0.8-0.6-1.2-1c0.9-0.6,1.8-0.9,2.8-0.9c1.3,0,2,1.1,1.7,2.5c-0.1,0.6-0.4,1.3-0.7,1.8
		c-0.1,0.1-0.2,0.3-0.2,0.5c-0.2,0-0.2,0.2-0.3,0.3c-0.2,0.3-0.4,0.6-0.7,0.9c-0.3-0.4-0.5-0.9-0.7-1.4c-0.1-0.2-0.1-0.4-0.1-0.6
		c0.2-0.7,0.4-1.4,0.6-2.1c0-0.1,0.1-0.3,0-0.4c-0.1-0.1-0.3-0.1-0.4,0C22.2,6,21.9,6.1,21.7,6.2z"/>
        <path class="st4" d="M23.1,10.3c0.3-0.2,0.5-0.6,0.7-0.9c0.1-0.1,0.2-0.3,0.3-0.3c0.3,0.6,0.6,1.3,0.7,2c0.3,1.8-0.8,2.8-2.6,2.4
		c-0.8-0.2-1.5-0.6-2.2-1l-1.2-1c0.4-0.2,0.8-0.4,1.3-0.7c0.2-0.1,0.4-0.2,0.7-0.1c0.7,0.2,1.4,0.4,2.1,0.6c0.1,0,0.3,0.1,0.4-0.1
		c0.1-0.1,0-0.3,0-0.4C23.3,10.8,23.2,10.6,23.1,10.3z"/>
        <path class="st5" d="M19,11.6l1.2,1c-1,0.7-2.1,1-3.3,0.8c-0.9-0.1-1.5-1-1.4-2.1c0.1-0.8,0.4-1.6,0.9-2.3c0-0.1,0.1-0.1,0.2-0.2
		c0.4,0.6,0.8,1.3,1.4,1.8c-0.1,0.3-0.1,0.6-0.2,0.9c-0.1,0.3,0.1,0.5,0.4,0.3C18.5,11.9,18.7,11.8,19,11.6z"/>
        <rect x="33.9" y="13.4" class="st1" width="2.7" height="0.2"/>
</g>
</svg>
